<?xml version="1.0" encoding="UTF-8" standalone="no"?><!DOCTYPE svg PUBLIC "-//W3C//DTD SVG 1.1//EN" "http://www.w3.org/Graphics/SVG/1.1/DTD/svg11.dtd"><svg width="100%" height="100%" viewBox="0 0 160 91" version="1.1" xmlns="http://www.w3.org/2000/svg" xmlns:xlink="http://www.w3.org/1999/xlink" xml:space="preserve" xmlns:serif="http://www.serif.com/" style="fill-rule:evenodd;clip-rule:evenodd;stroke-linejoin:round;stroke-miterlimit:2;"><path d="M53.805,36.106l53.806,26.903l-53.806,26.903l0,-53.806Z"/><rect x="101.947" y="36.106" width="5.664" height="53.805"/><rect x="107.611" y="61.593" width="52.389" height="2.832"/><rect x="0" y="61.593" width="53.805" height="2.832"/><path d="M74.649,31.111l15.165,-21.235l-3.456,-2.469l-15.166,21.236l3.457,2.468Zm17.388,-17.038l2.221,-14.073l-12.591,6.668l10.37,7.405Z" style="fill-rule:nonzero;"/><path d="M95.888,31.111l15.165,-21.235l-3.457,-2.469l-15.166,21.236l3.458,2.468Zm17.388,-17.038l2.221,-14.073l-12.592,6.668l10.371,7.405Z" style="fill-rule:nonzero;"/><text x="0.377px" y="54.965px" style="font-family:'MS-UIGothic', 'MS UI Gothic';font-size:16px;fill:#0d28f2;">アノード</text><text x="111.485px" y="55.09px" style="font-family:'MS-UIGothic', 'MS UI Gothic';font-size:16px;fill:#0d28f2;">カソード</text></svg>